<svg xmlns="http://www.w3.org/2000/svg" xmlns:xlink="http://www.w3.org/1999/xlink" height="277.7" viewBox="37.5 5.15 357 277.7" width="357" xmlns:v="https://vecta.io/nano"><g fill="none" stroke="#aaa"><path d="M37.488 263.008h51.004m-51.004 0l25.502-39.669m25.501 39.669h51.004"/><path d="M88.491 263.008l25.502-39.669m-25.502 39.669l-25.502-39.669m76.506 39.669h51.004"/><path d="M139.495 263.008l25.502-39.669m-25.502 39.669l-25.502-39.669m76.505 39.669h51.004"/><path d="M190.498 263.008L216 223.339m-25.502 39.669l-25.502-39.669m76.506 39.669h51.004"/><path d="M241.502 263.008l25.502-39.669m-25.502 39.669L216 223.339m76.505 39.669h51.004"/><path d="M292.505 263.008l25.502-39.669m-25.502 39.669l-25.502-39.669m76.506 39.669h51.004"/><path d="M343.509 263.008l25.502-39.669m-25.502 39.669l-25.502-39.669m76.505 39.669l-25.502-39.669m-306.021 0h51.004m-51.004 0L37.487 183.67"/><path d="M62.989 223.339l25.502-39.669m25.502 39.669h51.004m-51.004 0L88.491 183.67"/><path d="M113.993 223.339l25.502-39.669m25.501 39.669H216m-51.004 0l-25.502-39.669"/><path d="M164.996 223.339l25.502-39.669M216 223.339h51.004m-51.004 0l-25.502-39.669"/><path d="M216 223.339l25.502-39.669m25.502 39.669h51.004m-51.004 0l-25.502-39.669"/><path d="M267.004 223.339l25.502-39.669m25.501 39.669h51.004m-51.004 0l-25.502-39.669"/><path d="M318.007 223.339l25.502-39.669m25.502 39.669l-25.502-39.669m25.502 39.669l25.502-39.669m-357.025-.001h51.004m-51.004 0L62.989 144m25.502 39.669h51.004"/><path d="M88.491 183.669L113.993 144m-25.502 39.669L62.989 144m76.506 39.669h51.004"/><path d="M139.495 183.669L164.996 144m-25.501 39.669L113.993 144m76.505 39.669h51.004"/><path d="M190.498 183.669L216 144m-25.502 39.669L164.996 144m76.506 39.669h51.004"/><path d="M241.502 183.669L267.004 144m-25.502 39.669L216 144m76.505 39.669h51.004"/><path d="M292.505 183.669L318.007 144m-25.502 39.669L267.004 144m76.505 39.669h51.004"/><path d="M343.509 183.669L369.011 144m-25.502 39.669L318.007 144m76.505 39.669L369.011 144m-306.022 0h51.004m-51.004 0l-25.502-39.669"/><path d="M62.989 144l25.502-39.669M113.993 144h51.004m-51.004 0l-25.502-39.669"/><path d="M113.993 144l25.502-39.669M164.996 144H216m-51.004 0l-25.502-39.669"/><path d="M164.996 144l25.502-39.669M216 144h51.004M216 144l-25.502-39.669"/><path d="M216 144l25.502-39.669M267.004 144h51.004m-51.004 0l-25.502-39.669"/><path d="M267.004 144l25.502-39.669M318.007 144h51.004m-51.004 0l-25.502-39.669"/><path d="M318.007 144l25.502-39.669M369.011 144l-25.502-39.669M369.011 144l25.502-39.669m-357.025 0h51.004m-51.004 0L62.99 64.662m25.501 39.669h51.004"/><path d="M88.491 104.331l25.502-39.669m-25.502 39.669l-25.502-39.67m76.506 39.67h51.004"/><path d="M139.495 104.331l25.502-39.669m-25.502 39.669l-25.502-39.669m76.505 39.669h51.004"/><path d="M190.498 104.331L216 64.661m-25.502 39.67l-25.502-39.669m76.506 39.669h51.004"/><path d="M241.502 104.331l25.502-39.669m-25.502 39.669L216 64.661m76.505 39.67h51.004"/><path d="M292.505 104.331l25.502-39.669m-25.502 39.669l-25.502-39.669m76.506 39.669h51.004"/><path d="M343.509 104.331l25.502-39.669m-25.502 39.669l-25.502-39.669m76.505 39.669L369.01 64.662m-306.021-.001h51.004m-51.004-.146L37.488 24.846"/><path d="M62.989 64.661l25.502-39.669m25.502 39.669h51.004m-51.004 0L88.491 24.992"/><path d="M113.993 64.661l25.502-39.669m25.501 39.669H216m-51.004 0l-25.502-39.669"/><path d="M164.996 64.661l25.502-39.669M216 64.661h51.004m-51.004 0l-25.502-39.669"/><path d="M216 64.661l25.502-39.669m25.502 39.669h51.004m-51.004 0l-25.502-39.669"/><path d="M267.004 64.661l25.502-39.669m25.501 39.669h51.004m-51.004 0l-25.502-39.669"/><path d="M318.007 64.661l25.502-39.669m25.502 39.669l-25.502-39.669m25.502 39.669l25.502-39.669m-357.025 0h51.004m-.001 0h51.004m0 0h51.004m-.001 0h51.004m0 0h51.004"/><path d="M292.505 24.992h51.004m0 0h51.004M369 223.378h51.004"/><path d="M369 144.039h51.004M369 64.7h51.004M12 223.36h51.004"/><path d="M12 144.021h51.004M12 64.682h51.004"/><path d="M37.589 24.969L63.091-14.7m25.502 39.669L114.095-14.7M88.593 24.969L63.091-14.7m76.506 39.669L165.098-14.7m-25.501 39.669L114.095-14.7M190.6 24.969L216.102-14.7M190.6 24.969L165.098-14.7m76.506 39.669L267.105-14.7m-25.501 39.669L216.102-14.7m76.505 39.669L318.109-14.7m-25.502 39.669L267.105-14.7m76.506 39.669L369.113-14.7m-25.502 39.669L318.109-14.7m76.505 39.669L369.113-14.7" stroke-linejoin="round"/><path d="M63.002 302.669L37.5 263m25.502 39.669L88.503 263m25.502 39.669L88.503 263m25.502 39.669L139.507 263m25.502 39.669L139.507 263m25.502 39.669L190.51 263m25.502 39.669L190.51 263m25.502 39.669L241.514 263m25.502 39.669L241.514 263m25.502 39.669L292.518 263m25.501 39.669L292.518 263m25.501 39.669L343.521 263m25.502 39.669L343.521 263m25.502 39.669L394.525 263"/></g><use xlink:href="#B" fill="#440154"/><use xlink:href="#B" x="51.003" fill="#46327e"/><use xlink:href="#B" x="102.007" fill="#30698e"/><g fill="#228d8d"><use xlink:href="#B" x="153.01"/><use xlink:href="#B" x="204.014"/></g><use xlink:href="#B" x="255.017" fill="#30698e"/><use xlink:href="#B" x="306.021" fill="#46327e"/><use xlink:href="#B" x="357.024" fill="#440154"/><use xlink:href="#B" x="25.501" y="-39.669" fill="#472f7d"/><use xlink:href="#B" x="76.505" y="-39.669" fill="#33628d"/><use xlink:href="#B" x="127.508" y="-39.669" fill="#1f968b"/><use xlink:href="#B" x="178.512" y="-39.669" fill="#27ad81"/><use xlink:href="#B" x="229.516" y="-39.669" fill="#1f968b"/><use xlink:href="#B" x="280.519" y="-39.669" fill="#33628d"/><use xlink:href="#B" x="331.523" y="-39.669" fill="#472f7d"/><use xlink:href="#B" y="-79.338" fill="#46337f"/><use xlink:href="#B" x="51.003" y="-79.338" fill="#375b8d"/><use xlink:href="#B" x="102.007" y="-79.338" fill="#1f998a"/><g fill="#70cf57"><use xlink:href="#B" x="153.01" y="-79.338"/><use xlink:href="#B" x="204.014" y="-79.338"/></g><use xlink:href="#B" x="255.017" y="-79.338" fill="#1f998a"/><use xlink:href="#B" x="306.021" y="-79.338" fill="#375b8d"/><use xlink:href="#B" x="357.024" y="-79.338" fill="#46337f"/><path d="M62.989 148.472A4.47 4.47 0 0 0 67.462 144a4.47 4.47 0 0 0-4.472-4.472A4.47 4.47 0 0 0 58.517 144a4.47 4.47 0 0 0 4.472 4.472z" fill="#3e4c8a"/><use xlink:href="#B" x="76.505" y="-119.008" fill="#26828e"/><use xlink:href="#B" x="127.508" y="-119.008" fill="#63cb5f"/><use xlink:href="#B" x="178.512" y="-119.008" fill="#fde725"/><use xlink:href="#B" x="229.516" y="-119.008" fill="#63cb5f"/><use xlink:href="#B" x="280.519" y="-119.008" fill="#26828e"/><use xlink:href="#B" x="331.523" y="-119.008" fill="#3e4c8a"/><use xlink:href="#B" y="-158.677" fill="#46337f"/><use xlink:href="#B" x="51.003" y="-158.677" fill="#375b8d"/><use xlink:href="#B" x="102.007" y="-158.677" fill="#1f998a"/><g fill="#70cf57"><use xlink:href="#B" x="153.01" y="-158.677"/><use xlink:href="#B" x="204.014" y="-158.677"/></g><use xlink:href="#B" x="255.017" y="-158.677" fill="#1f998a"/><use xlink:href="#B" x="306.021" y="-158.677" fill="#375b8d"/><use xlink:href="#B" x="357.024" y="-158.677" fill="#46337f"/><use xlink:href="#B" x="25.501" y="-198.347" fill="#472f7d"/><use xlink:href="#B" x="76.505" y="-198.347" fill="#33628d"/><use xlink:href="#B" x="127.508" y="-198.347" fill="#1f968b"/><path d="M216 69.133a4.47 4.47 0 0 0 4.472-4.472A4.47 4.47 0 0 0 216 60.189a4.47 4.47 0 0 0-4.472 4.472A4.47 4.47 0 0 0 216 69.133z" fill="#27ad81"/><use xlink:href="#B" x="229.516" y="-198.347" fill="#1f968b"/><use xlink:href="#B" x="280.519" y="-198.347" fill="#33628d"/><use xlink:href="#B" x="331.523" y="-198.347" fill="#472f7d"/><use xlink:href="#B" y="-238.016" fill="#440154"/><use xlink:href="#B" x="51.003" y="-238.016" fill="#46327e"/><use xlink:href="#B" x="102.007" y="-238.016" fill="#30698e"/><g fill="#228d8d"><use xlink:href="#B" x="153.01" y="-238.016"/><use xlink:href="#B" x="204.014" y="-238.016"/></g><use xlink:href="#B" x="255.017" y="-238.016" fill="#30698e"/><use xlink:href="#B" x="306.021" y="-238.016" fill="#46327e"/><use xlink:href="#B" x="357.024" y="-238.016" fill="#440154"/><defs ><path id="B" d="M37.488 267.48a4.47 4.47 0 0 0 4.472-4.472 4.47 4.47 0 0 0-4.472-4.472 4.47 4.47 0 0 0-4.472 4.472 4.47 4.47 0 0 0 4.472 4.472z"/></defs></svg>